# xmcd
#
# Track frame offsets: 
#        150
#        19141
#        40311
#        57068
#        81239
#        107852
#        126881
#        147905
#        164447
#        180237
#        203833
#        227181
#        241659
#        259791
#        283140
#        303994
#        325304
#
# Disc length: 4773 seconds
#
# Revision: 0
# Processed by: cddbd v1.5.2PL0 Copyright (c) Steve Scherf et al.
# Submitted via: ExactAudioCopy v1.3
#
DISCID=ec12a311
DTITLE=Various Artist - Akella Presents - vol. 187 - Blues-Rock (men 
DTITLE=& women) CD1
DYEAR=2019
DGENRE=Rock
TTITLE0=Chris Turner - Rebound Man
TTITLE1=Tullie Brae - Price of the Blues
TTITLE2=Marc Amacher - Jack Driver
TTITLE3=The Blue Flames - Roadhouse Blues
TTITLE4=Julian Sas - Howlin' Wind
TTITLE5=Jail Job Eve - My Baby
TTITLE6=Moderate Pace - Hell Riders
TTITLE7=Erja Lyytinen - Snake In The Grass
TTITLE8=Nick Harless and The Harless Brothers - Sexy Thing
TTITLE9=In Layman Terms - Heartbroken
TTITLE10=Joost De Lange Band - Wandering
TTITLE11=Bonnie Tyler - Slow Walk
TTITLE12=Ellis Mano Band - Bad News Blues
TTITLE13=Kathy Boye and The DTG Gang - I Feel Alive
TTITLE14=Bad Bob Bates - Can't Be That Hard
TTITLE15=Melissa Etheridge - I Know You
TTITLE16=The Devil and The Almighty Blues - Lay Down
EXTD=
EXTT0=
EXTT1=
EXTT2=
EXTT3=
EXTT4=
EXTT5=
EXTT6=
EXTT7=
EXTT8=
EXTT9=
EXTT10=
EXTT11=
EXTT12=
EXTT13=
EXTT14=
EXTT15=
EXTT16=
PLAYORDER=
